<svg xmlns="http://www.w3.org/2000/svg" version="1.1" xmlns:xlink="http://www.w3.org/1999/xlink" xmlns:svgjs="http://svgjs.dev/svgjs" width="1500" height="280" viewBox="0 0 1500 280"><g transform="matrix(1,0,0,1,-0.9090909090909918,0.3836160813950755)"><svg viewBox="0 0 396 74" data-background-color="#ffffff" preserveAspectRatio="xMidYMid meet" height="280" width="1500" xmlns="http://www.w3.org/2000/svg" xmlns:xlink="http://www.w3.org/1999/xlink"><g id="tight-bounds" transform="matrix(1,0,0,1,0.2400000000000091,-0.10138425008298668)"><svg viewBox="0 0 395.52 74.20273986787292" height="74.20273986787292" width="395.52"><g><svg viewBox="0 0 499.59454760663135 93.72796383359255" height="74.20273986787292" width="395.52"><g transform="matrix(1,0,0,1,104.07454760663137,27.132902277028805)"><svg viewBox="0 0 395.52 39.462159279534944" height="39.462159279534944" width="395.52"><g id="textblocktransform"><svg viewBox="0 0 395.52 39.462159279534944" height="39.462159279534944" width="395.52" id="textblock"><g><svg viewBox="0 0 395.52 21.913671387686215" height="21.913671387686215" width="395.52"><g transform="matrix(1,0,0,1,0,0)"><svg width="395.52" viewBox="3.95 -35.45 681.29 37.75" height="21.913671387686215" data-palette-color="#111111"><path d="M8.35 0L3.95 0 3.95-34.85 26.8-34.85 26.8-30.9 8.35-30.9 8.35-19.75 24.35-19.75 24.35-15.8 8.35-15.8 8.35 0ZM52.2 0L32.2 0 32.2-34.85 36.6-34.85 36.6-3.95 52.2-3.95 52.2 0ZM69.3 0.6L69.3 0.6Q64.5 0.6 60.87-1.65 57.25-3.9 55.22-7.95 53.2-12 53.2-17.4L53.2-17.4Q53.2-22.85 55.22-26.9 57.25-30.95 60.87-33.2 64.5-35.45 69.3-35.45L69.3-35.45Q74.2-35.45 77.85-33.2 81.5-30.95 83.52-26.9 85.55-22.85 85.55-17.4L85.55-17.4Q85.55-12 83.5-7.95 81.45-3.9 77.8-1.65 74.15 0.6 69.3 0.6ZM69.3-3.6L69.3-3.6Q72.95-3.6 75.57-5.3 78.2-7 79.65-10.1 81.1-13.2 81.1-17.4L81.1-17.4Q81.1-21.65 79.65-24.75 78.2-27.85 75.57-29.55 72.95-31.25 69.3-31.25L69.3-31.25Q65.75-31.25 63.1-29.58 60.45-27.9 59.02-24.8 57.6-21.7 57.6-17.4L57.6-17.4Q57.6-13.15 59.02-10.05 60.45-6.95 63.1-5.28 65.75-3.6 69.3-3.6ZM96.44 0L92.04 0 92.04-34.85 102.44-34.85Q106.44-34.85 108.99-33.68 111.54-32.5 112.79-30.3 114.04-28.1 114.04-25.05L114.04-25.05Q114.04-20.7 111.54-18.18 109.04-15.65 104.29-15.2L104.29-15.2Q103.54-15.15 102.49-15.15 101.44-15.15 100.44-15.15L100.44-15.15 96.44-15.15 96.44 0ZM116.59 0L111.54 0 102.49-15.7 106.99-16.25 116.59 0ZM96.44-30.9L96.44-19.05 101.99-19.05Q104.29-19.05 105.99-19.65 107.69-20.25 108.67-21.55 109.64-22.85 109.64-25L109.64-25Q109.64-27.2 108.67-28.48 107.69-29.75 105.97-30.33 104.24-30.9 101.99-30.9L101.99-30.9 96.44-30.9ZM126.04 0L121.64 0 121.64-34.85 126.04-34.85 126.04 0ZM143.54 0L133.94 0 133.94-34.85 143.59-34.85Q152.14-34.85 156.84-30.23 161.54-25.6 161.54-17.15L161.54-17.15Q161.54-8.85 156.89-4.42 152.24 0 143.54 0L143.54 0ZM138.34-30.8L138.34-4.05 143.14-4.05Q147.59-4.05 150.71-5.38 153.84-6.7 155.46-9.63 157.09-12.55 157.09-17.3L157.09-17.3Q157.09-22.05 155.46-25.03 153.84-28 150.81-29.4 147.79-30.8 143.54-30.8L143.54-30.8 138.34-30.8ZM168.23 0L163.38 0 176.69-34.85 180.19-34.85 193.49 0 188.69 0 178.48-28.55 168.23 0ZM186.19-8.2L170.78-8.2 172.13-12.15 184.74-12.15 186.19-8.2ZM218.33 0L198.33 0 198.33-34.85 202.73-34.85 202.73-3.95 218.33-3.95 218.33 0ZM227.48 0L223.08 0 223.08-34.85 227.48-34.85 227.48 0ZM250.03 0.6L250.03 0.6Q245.23 0.6 241.6-1.65 237.98-3.9 235.95-7.95 233.93-12 233.93-17.4L233.93-17.4Q233.93-22.85 235.95-26.9 237.98-30.95 241.6-33.2 245.23-35.45 250.03-35.45L250.03-35.45Q254.93-35.45 258.58-33.2 262.23-30.95 264.25-26.9 266.28-22.85 266.28-17.4L266.28-17.4Q266.28-12 264.23-7.95 262.18-3.9 258.53-1.65 254.88 0.6 250.03 0.6ZM267.58-0.3L264.93 2.3 251.38-10.9 253.98-13.65 267.58-0.3ZM250.03-3.6L250.03-3.6Q253.68-3.6 256.3-5.3 258.93-7 260.38-10.1 261.83-13.2 261.83-17.4L261.83-17.4Q261.83-21.65 260.38-24.75 258.93-27.85 256.3-29.55 253.68-31.25 250.03-31.25L250.03-31.25Q246.48-31.25 243.83-29.58 241.18-27.9 239.75-24.8 238.33-21.7 238.33-17.4L238.33-17.4Q238.33-13.15 239.75-10.05 241.18-6.95 243.83-5.28 246.48-3.6 250.03-3.6ZM286.48 0.6L286.48 0.6Q280.27 0.6 277-2.75 273.73-6.1 273.73-12.6L273.73-12.6 273.73-34.85 278.13-34.85 278.13-13.1Q278.13-9.95 278.95-7.8 279.77-5.65 281.63-4.55 283.48-3.45 286.48-3.45L286.48-3.45Q289.48-3.45 291.35-4.58 293.23-5.7 294.07-7.85 294.93-10 294.93-13.15L294.93-13.15 294.93-34.85 299.27-34.85 299.27-12.85Q299.27-6.25 296-2.83 292.73 0.6 286.48 0.6ZM321.52 0.6L321.52 0.6Q316.72 0.6 313.1-1.65 309.47-3.9 307.45-7.95 305.42-12 305.42-17.4L305.42-17.4Q305.42-22.85 307.45-26.9 309.47-30.95 313.1-33.2 316.72-35.45 321.52-35.45L321.52-35.45Q326.42-35.45 330.07-33.2 333.72-30.95 335.75-26.9 337.77-22.85 337.77-17.4L337.77-17.4Q337.77-12 335.72-7.95 333.67-3.9 330.02-1.65 326.37 0.6 321.52 0.6ZM321.52-3.6L321.52-3.6Q325.17-3.6 327.8-5.3 330.42-7 331.87-10.1 333.32-13.2 333.32-17.4L333.32-17.4Q333.32-21.65 331.87-24.75 330.42-27.85 327.8-29.55 325.17-31.25 321.52-31.25L321.52-31.25Q317.97-31.25 315.32-29.58 312.67-27.9 311.25-24.8 309.82-21.7 309.82-17.4L309.82-17.4Q309.82-13.15 311.25-10.05 312.67-6.95 315.32-5.28 317.97-3.6 321.52-3.6ZM348.67 0L344.27 0 344.27-34.85 354.67-34.85Q358.67-34.85 361.22-33.68 363.77-32.5 365.02-30.3 366.27-28.1 366.27-25.05L366.27-25.05Q366.27-20.7 363.77-18.18 361.27-15.65 356.52-15.2L356.52-15.2Q355.77-15.15 354.72-15.15 353.67-15.15 352.67-15.15L352.67-15.15 348.67-15.15 348.67 0ZM368.82 0L363.77 0 354.72-15.7 359.22-16.25 368.82 0ZM348.67-30.9L348.67-19.05 354.22-19.05Q356.52-19.05 358.22-19.65 359.92-20.25 360.89-21.55 361.87-22.85 361.87-25L361.87-25Q361.87-27.2 360.89-28.48 359.92-29.75 358.19-30.33 356.47-30.9 354.22-30.9L354.22-30.9 348.67-30.9ZM393.87 0L373.87 0 373.87-34.85 378.27-34.85 378.27-3.95 393.87-3.95 393.87 0ZM403.01 0L398.61 0 398.61-34.85 403.01-34.85 403.01 0ZM425.56 0.6L425.56 0.6Q420.76 0.6 417.14-1.65 413.51-3.9 411.49-7.98 409.46-12.05 409.46-17.45L409.46-17.45Q409.46-22.85 411.49-26.9 413.51-30.95 417.14-33.2 420.76-35.45 425.56-35.45L425.56-35.45Q430.81-35.45 434.66-32.85 438.51-30.25 440.21-25.65L440.21-25.65 436.11-24.1Q434.81-27.5 432.11-29.38 429.41-31.25 425.56-31.25L425.56-31.25Q422.01-31.25 419.36-29.55 416.71-27.85 415.29-24.78 413.86-21.7 413.86-17.45L413.86-17.45Q413.86-13.2 415.29-10.1 416.71-7 419.36-5.3 422.01-3.6 425.56-3.6L425.56-3.6Q429.41-3.6 432.11-5.5 434.81-7.4 436.11-10.75L436.11-10.75 440.21-9.25Q438.51-4.7 434.66-2.05 430.81 0.6 425.56 0.6ZM469.06 0L446.11 0 446.11-34.85 469.06-34.85 469.06-30.9 450.51-30.9 450.51-19.75 467.36-19.75 467.36-15.8 450.51-15.8 450.51-3.95 469.06-3.95 469.06 0ZM479.76 0L475.36 0 475.36-34.85 480.01-34.85 497.86-5.7 496.86-5.7 496.86-34.85 501.26-34.85 501.26 0 496.51 0 478.76-29.2 479.76-29.2 479.76 0ZM519.8 0.55L519.8 0.55Q514.55 0.55 511.2-2.2 507.85-4.95 507.1-9.5L507.1-9.5 511.4-10.55Q511.95-7.05 514.28-5.23 516.61-3.4 519.95-3.4L519.95-3.4Q521.9-3.4 523.45-4.15 525-4.9 525.9-6.28 526.8-7.65 526.8-9.4L526.8-9.4Q526.8-11.25 525.8-12.45 524.8-13.65 523.03-14.55 521.25-15.45 518.9-16.35L518.9-16.35Q516-17.45 513.83-18.75 511.65-20.05 510.45-21.88 509.25-23.7 509.25-26.35L509.25-26.35Q509.25-29 510.56-31.05 511.85-33.1 514.2-34.27 516.55-35.45 519.65-35.45L519.65-35.45Q522.95-35.45 525.5-33.95 528.05-32.45 529.61-29.5L529.61-29.5 526.11-27.35Q524.95-29.4 523.3-30.48 521.65-31.55 519.5-31.55L519.5-31.55Q517.8-31.55 516.48-30.9 515.15-30.25 514.4-29.1 513.65-27.95 513.65-26.45L513.65-26.45Q513.65-24.85 514.55-23.73 515.45-22.6 517.15-21.75 518.86-20.9 521.25-20L521.25-20Q524.3-18.85 526.5-17.5 528.7-16.15 529.93-14.28 531.15-12.4 531.15-9.65L531.15-9.65Q531.15-6.7 529.7-4.4 528.25-2.1 525.7-0.78 523.15 0.55 519.8 0.55ZM560.3 0L537.35 0 537.35-34.85 560.3-34.85 560.3-30.9 541.75-30.9 541.75-19.75 558.6-19.75 558.6-15.8 541.75-15.8 541.75-3.95 560.3-3.95 560.3 0ZM571.15 0L566.15 0 566.15-5.8 571.15-5.8 571.15 0ZM593.25 0.6L593.25 0.6Q588.45 0.6 584.82-1.65 581.2-3.9 579.17-7.98 577.15-12.05 577.15-17.45L577.15-17.45Q577.15-22.85 579.17-26.9 581.2-30.95 584.82-33.2 588.45-35.45 593.25-35.45L593.25-35.45Q598.5-35.45 602.35-32.85 606.2-30.25 607.9-25.65L607.9-25.65 603.8-24.1Q602.5-27.5 599.8-29.38 597.1-31.25 593.25-31.25L593.25-31.25Q589.7-31.25 587.05-29.55 584.4-27.85 582.97-24.78 581.55-21.7 581.55-17.45L581.55-17.45Q581.55-13.2 582.97-10.1 584.4-7 587.05-5.3 589.7-3.6 593.25-3.6L593.25-3.6Q597.1-3.6 599.8-5.5 602.5-7.4 603.8-10.75L603.8-10.75 607.9-9.25Q606.2-4.7 602.35-2.05 598.5 0.6 593.25 0.6ZM628.44 0.6L628.44 0.6Q623.64 0.6 620.02-1.65 616.39-3.9 614.37-7.95 612.34-12 612.34-17.4L612.34-17.4Q612.34-22.85 614.37-26.9 616.39-30.95 620.02-33.2 623.64-35.45 628.44-35.45L628.44-35.45Q633.34-35.45 636.99-33.2 640.64-30.95 642.67-26.9 644.69-22.85 644.69-17.4L644.69-17.4Q644.69-12 642.64-7.95 640.59-3.9 636.94-1.65 633.29 0.6 628.44 0.6ZM628.44-3.6L628.44-3.6Q632.09-3.6 634.72-5.3 637.34-7 638.79-10.1 640.24-13.2 640.24-17.4L640.24-17.4Q640.24-21.65 638.79-24.75 637.34-27.85 634.72-29.55 632.09-31.25 628.44-31.25L628.44-31.25Q624.89-31.25 622.24-29.58 619.59-27.9 618.17-24.8 616.74-21.7 616.74-17.4L616.74-17.4Q616.74-13.15 618.17-10.05 619.59-6.95 622.24-5.28 624.89-3.6 628.44-3.6ZM655.59 0L651.19 0 651.19-34.85 657.69-34.85 668.64-7.3 667.84-7.3 678.79-34.85 685.24-34.85 685.24 0 680.84 0 680.84-29.75 681.19-29.7 670.39-2.95 666.09-2.95 655.24-29.7 655.59-29.75 655.59 0Z" opacity="1" transform="matrix(1,0,0,1,0,0)" fill="#111111" class="wordmark-text-0" data-fill-palette-color="primary" id="text-0"></path></svg></g></svg></g><g transform="matrix(1,0,0,1,0,27.086963274205626)"><svg viewBox="0 0 232.20979200000002 12.375196005329316" height="12.375196005329316" width="232.20979200000002"><g transform="matrix(1,0,0,1,0,0)"><svg width="232.20979200000002" viewBox="4.25 -36 863.06 46" height="12.375196005329316" data-palette-color="#0ab228"><path d="M4.25-35L8.25-35 8.25-3.5 24.6-3.5 24.6 0 4.25 0 4.25-35ZM30.6 0L30.6-25 34.3-25 34.3 0 30.6 0ZM32.5-30L32.5-30Q31.35-30 30.6-30.75 29.85-31.5 29.85-32.6L29.85-32.6Q29.85-33.75 30.6-34.5 31.35-35.25 32.5-35.25L32.5-35.25Q33.55-35.25 34.32-34.5 35.1-33.75 35.1-32.6L35.1-32.6Q35.1-31.5 34.32-30.75 33.55-30 32.5-30ZM61.65-5.1L62.05-5.05Q60.9-2.75 58.55-1.2 56.2 0.35 52.65 0.35L52.65 0.35Q49.2 0.35 46.62-1.25 44.05-2.85 42.62-5.73 41.2-8.6 41.2-12.5L41.2-12.5Q41.2-16.45 42.62-19.33 44.05-22.2 46.62-23.78 49.2-25.35 52.65-25.35L52.65-25.35Q56-25.35 58.27-23.9 60.55-22.45 61.7-20.35L61.7-20.35 61.95-25 65.4-25 65.4 10 61.65 10 61.65-5.1ZM45.25-12.5L45.25-12.5Q45.25-8.2 47.47-5.68 49.7-3.15 53.45-3.15L53.45-3.15Q55.8-3.15 57.65-4.28 59.5-5.4 60.57-7.5 61.65-9.6 61.65-12.5L61.65-12.5Q61.65-15.45 60.57-17.55 59.5-19.65 57.65-20.75 55.8-21.85 53.45-21.85L53.45-21.85Q49.65-21.85 47.45-19.33 45.25-16.8 45.25-12.5ZM93.49-25L93.49 0 90.09 0 89.84-3.6Q88.69-1.7 86.74-0.68 84.79 0.35 82.19 0.35L82.19 0.35Q79.29 0.35 77.14-0.85 74.99-2.05 73.82-4.45 72.64-6.85 72.64-10.5L72.64-10.5 72.64-25 76.34-25 76.34-10.9Q76.34-7.05 78.02-5.08 79.69-3.1 82.84-3.1L82.84-3.1Q86.04-3.1 87.92-5.18 89.79-7.25 89.79-11.45L89.79-11.45 89.79-25 93.49-25ZM111.94 0.35L111.94 0.35Q108.39 0.35 105.59-1.2 102.79-2.75 101.19-5.63 99.59-8.5 99.59-12.45L99.59-12.45Q99.59-16.45 101.22-19.35 102.84-22.25 105.67-23.8 108.49-25.35 112.04-25.35L112.04-25.35Q115.59-25.35 118.42-23.8 121.24-22.25 122.87-19.38 124.49-16.5 124.49-12.55L124.49-12.55Q124.49-8.55 122.84-5.65 121.19-2.75 118.34-1.2 115.49 0.35 111.94 0.35ZM111.89-3.2L111.89-3.2Q114.09-3.2 116.04-4.17 117.99-5.15 119.22-7.23 120.44-9.3 120.44-12.5L120.44-12.5Q120.44-15.75 119.24-17.8 118.04-19.85 116.12-20.83 114.19-21.8 111.99-21.8L111.99-21.8Q109.79-21.8 107.89-20.83 105.99-19.85 104.82-17.78 103.64-15.7 103.64-12.5L103.64-12.5Q103.64-9.25 104.79-7.2 105.94-5.15 107.82-4.17 109.69-3.2 111.89-3.2ZM130.64 0L130.64-25 134.09-25 134.29-21.35Q135.29-22.7 136.71-23.65 138.14-24.6 139.86-24.98 141.59-25.35 143.54-25L143.54-25 143.54-21.25Q141.44-21.65 139.76-21.25 138.09-20.85 136.89-19.75 135.69-18.65 135.04-16.98 134.39-15.3 134.39-13.1L134.39-13.1 134.39 0 130.64 0ZM163.03-35L167.03-35 167.03-3.5 183.38-3.5 183.38 0 163.03 0 163.03-35ZM189.38 0L189.38-25 193.08-25 193.08 0 189.38 0ZM191.28-30L191.28-30Q190.13-30 189.38-30.75 188.63-31.5 188.63-32.6L188.63-32.6Q188.63-33.75 189.38-34.5 190.13-35.25 191.28-35.25L191.28-35.25Q192.33-35.25 193.11-34.5 193.88-33.75 193.88-32.6L193.88-32.6Q193.88-31.5 193.11-30.75 192.33-30 191.28-30ZM212.18 0.35L212.18 0.35Q208.53 0.35 205.78-1.25 203.03-2.85 201.5-5.73 199.98-8.6 199.98-12.4L199.98-12.4Q199.98-16.25 201.5-19.18 203.03-22.1 205.78-23.73 208.53-25.35 212.18-25.35L212.18-25.35Q216.03-25.35 218.93-23.58 221.83-21.8 223.13-18.65L223.13-18.65 219.68-17.45Q218.93-19.45 216.95-20.63 214.98-21.8 212.38-21.8L212.38-21.8Q209.83-21.8 207.95-20.65 206.08-19.5 205.05-17.4 204.03-15.3 204.03-12.45L204.03-12.45Q204.03-8.25 206.28-5.73 208.53-3.2 212.28-3.2L212.28-3.2Q214.83-3.2 216.83-4.35 218.83-5.5 219.78-7.45L219.78-7.45 223.18-6.25Q221.83-3.15 218.93-1.4 216.03 0.35 212.18 0.35ZM239.83 0.35L239.83 0.35Q236.33 0.35 233.6-1.35 230.88-3.05 229.33-6 227.78-8.95 227.78-12.75L227.78-12.75Q227.78-16.4 229.33-19.25 230.88-22.1 233.58-23.73 236.28-25.35 239.73-25.35L239.73-25.35Q243.13-25.35 245.8-23.85 248.48-22.35 249.98-19.7 251.48-17.05 251.38-13.65L251.38-13.65Q251.38-13.1 251.33-12.5 251.28-11.9 251.23-11.2L251.23-11.2 231.88-11.2Q231.98-8.85 233.03-7.05 234.08-5.25 235.8-4.23 237.53-3.2 239.73-3.2L239.73-3.2Q242.63-3.2 244.65-4.3 246.68-5.4 247.58-7.45L247.58-7.45 250.83-6.15Q249.33-3 246.48-1.33 243.63 0.35 239.83 0.35ZM231.93-14.45L247.28-14.45Q247.33-16.6 246.35-18.25 245.38-19.9 243.63-20.85 241.88-21.8 239.58-21.8L239.58-21.8Q237.58-21.8 235.93-20.85 234.28-19.9 233.2-18.23 232.13-16.55 231.93-14.45L231.93-14.45ZM257.52 0L257.52-25 260.97-25 261.17-21.45Q262.37-23.3 264.32-24.33 266.27-25.35 268.87-25.35L268.87-25.35Q271.72-25.35 273.87-24.13 276.02-22.9 277.22-20.48 278.42-18.05 278.42-14.4L278.42-14.4 278.42 0 274.67 0 274.67-13.95Q274.67-17.85 273-19.88 271.32-21.9 268.17-21.9L268.17-21.9Q264.92-21.9 263.1-19.75 261.27-17.6 261.27-13.4L261.27-13.4 261.27 0 257.52 0ZM284.12-6.45L287.72-7.65Q288.02-6.15 288.82-5.18 289.62-4.2 290.9-3.7 292.17-3.2 293.87-3.2L293.87-3.2Q296.52-3.2 297.9-4.23 299.27-5.25 299.27-6.8L299.27-6.8Q299.27-8.1 298.45-8.9 297.62-9.7 296.27-10.23 294.92-10.75 293.27-11.15L293.27-11.15Q291.97-11.45 290.47-11.88 288.97-12.3 287.62-13.05 286.27-13.8 285.42-15 284.57-16.2 284.57-18.15L284.57-18.15Q284.57-20.3 285.75-21.93 286.92-23.55 289-24.45 291.07-25.35 293.77-25.35L293.77-25.35Q296.87-25.35 299.3-24 301.72-22.65 302.67-19.8L302.67-19.8 299.17-18.6Q298.82-19.9 297.9-20.6 296.97-21.3 295.85-21.55 294.72-21.8 293.62-21.8L293.62-21.8Q291.37-21.8 290-20.93 288.62-20.05 288.62-18.3L288.62-18.3Q288.62-17.35 289.07-16.73 289.52-16.1 290.32-15.7 291.12-15.3 292.22-15.03 293.32-14.75 294.62-14.4L294.62-14.4Q296.07-14.05 297.57-13.53 299.07-13 300.37-12.18 301.67-11.35 302.5-10.08 303.32-8.8 303.32-6.9L303.32-6.9Q303.32-4.7 302.12-3.08 300.92-1.45 298.8-0.55 296.67 0.35 293.87 0.35L293.87 0.35Q290.02 0.35 287.5-1.38 284.97-3.1 284.12-6.45L284.12-6.45ZM319.92 0.35L319.92 0.35Q316.42 0.35 313.69-1.35 310.97-3.05 309.42-6 307.87-8.95 307.87-12.75L307.87-12.75Q307.87-16.4 309.42-19.25 310.97-22.1 313.67-23.73 316.37-25.35 319.82-25.35L319.82-25.35Q323.22-25.35 325.89-23.85 328.57-22.35 330.07-19.7 331.57-17.05 331.47-13.65L331.47-13.65Q331.47-13.1 331.42-12.5 331.37-11.9 331.32-11.2L331.32-11.2 311.97-11.2Q312.07-8.85 313.12-7.05 314.17-5.25 315.89-4.23 317.62-3.2 319.82-3.2L319.82-3.2Q322.72-3.2 324.74-4.3 326.77-5.4 327.67-7.45L327.67-7.45 330.92-6.15Q329.42-3 326.57-1.33 323.72 0.35 319.92 0.35ZM312.02-14.45L327.37-14.45Q327.42-16.6 326.44-18.25 325.47-19.9 323.72-20.85 321.97-21.8 319.67-21.8L319.67-21.8Q317.67-21.8 316.02-20.85 314.37-19.9 313.29-18.23 312.22-16.55 312.02-14.45L312.02-14.45ZM336.07-6.45L339.67-7.65Q339.97-6.15 340.77-5.18 341.57-4.2 342.84-3.7 344.12-3.2 345.82-3.2L345.82-3.2Q348.47-3.2 349.84-4.23 351.22-5.25 351.22-6.8L351.22-6.8Q351.22-8.1 350.39-8.9 349.57-9.7 348.22-10.23 346.87-10.75 345.22-11.15L345.22-11.15Q343.92-11.45 342.42-11.88 340.92-12.3 339.57-13.05 338.22-13.8 337.37-15 336.52-16.2 336.52-18.15L336.52-18.15Q336.52-20.3 337.69-21.93 338.87-23.55 340.94-24.45 343.02-25.35 345.72-25.35L345.72-25.35Q348.82-25.35 351.24-24 353.67-22.65 354.62-19.8L354.62-19.8 351.12-18.6Q350.77-19.9 349.84-20.6 348.92-21.3 347.79-21.55 346.67-21.8 345.57-21.8L345.57-21.8Q343.32-21.8 341.94-20.93 340.57-20.05 340.57-18.3L340.57-18.3Q340.57-17.35 341.02-16.73 341.47-16.1 342.27-15.7 343.07-15.3 344.17-15.03 345.27-14.75 346.57-14.4L346.57-14.4Q348.02-14.05 349.52-13.53 351.02-13 352.32-12.18 353.62-11.35 354.44-10.08 355.27-8.8 355.27-6.9L355.27-6.9Q355.27-4.7 354.07-3.08 352.87-1.45 350.74-0.55 348.62 0.35 345.82 0.35L345.82 0.35Q341.97 0.35 339.44-1.38 336.92-3.1 336.07-6.45L336.07-6.45ZM379.76-17.8L388.11-17.8Q390.91-17.8 392.66-18.65 394.41-19.5 395.24-21.05 396.06-22.6 396.06-24.65L396.06-24.65Q396.06-27.9 394.19-29.7 392.31-31.5 388.11-31.5L388.11-31.5 379.76-31.5 379.76-17.8ZM400.01-24.65L400.01-24.65Q400.01-22.6 399.34-20.73 398.66-18.85 397.21-17.4 395.76-15.95 393.51-15.13 391.26-14.3 388.11-14.3L388.11-14.3 379.76-14.3 379.76 0 375.76 0 375.76-35 388.11-35Q392.21-35 394.84-33.6 397.46-32.2 398.74-29.85 400.01-27.5 400.01-24.65ZM426.41-25L426.41 0 423.01 0 422.76-3.6Q421.61-1.7 419.66-0.68 417.71 0.35 415.11 0.35L415.11 0.35Q412.21 0.35 410.06-0.85 407.91-2.05 406.73-4.45 405.56-6.85 405.56-10.5L405.56-10.5 405.56-25 409.26-25 409.26-10.9Q409.26-7.05 410.93-5.08 412.61-3.1 415.76-3.1L415.76-3.1Q418.96-3.1 420.83-5.18 422.71-7.25 422.71-11.45L422.71-11.45 422.71-25 426.41-25ZM434.06 0L434.06-25 437.51-25 437.71-21.35Q438.71-22.7 440.13-23.65 441.56-24.6 443.28-24.98 445.01-25.35 446.96-25L446.96-25 446.96-21.25Q444.86-21.65 443.18-21.25 441.51-20.85 440.31-19.75 439.11-18.65 438.46-16.98 437.81-15.3 437.81-13.1L437.81-13.1 437.81 0 434.06 0ZM462.2 0.35L462.2 0.35Q458.55 0.35 455.8-1.25 453.05-2.85 451.53-5.73 450-8.6 450-12.4L450-12.4Q450-16.25 451.53-19.18 453.05-22.1 455.8-23.73 458.55-25.35 462.2-25.35L462.2-25.35Q466.05-25.35 468.95-23.58 471.85-21.8 473.15-18.65L473.15-18.65 469.7-17.45Q468.95-19.45 466.98-20.63 465-21.8 462.4-21.8L462.4-21.8Q459.85-21.8 457.98-20.65 456.1-19.5 455.08-17.4 454.05-15.3 454.05-12.45L454.05-12.45Q454.05-8.25 456.3-5.73 458.55-3.2 462.3-3.2L462.3-3.2Q464.85-3.2 466.85-4.35 468.85-5.5 469.8-7.45L469.8-7.45 473.2-6.25Q471.85-3.15 468.95-1.4 466.05 0.35 462.2 0.35ZM479.35 0L479.35-36 483.1-36 483.1-21.6Q484.3-23.4 486.35-24.38 488.4-25.35 490.95-25.35L490.95-25.35Q493.7-25.35 495.85-24.1 498-22.85 499.23-20.4 500.45-17.95 500.45-14.3L500.45-14.3 500.45 0 496.45 0 496.45-13.85Q496.45-17.75 494.8-19.83 493.15-21.9 490-21.9L490-21.9Q486.75-21.9 484.93-19.7 483.1-17.5 483.1-13.3L483.1-13.3 483.1 0 479.35 0ZM526.8 0L523.35 0 523.05-4.5Q522-2.2 519.95-0.93 517.9 0.35 514.75 0.35L514.75 0.35Q512.05 0.35 510.15-0.5 508.25-1.35 507.22-2.93 506.2-4.5 506.2-6.65L506.2-6.65Q506.2-9.8 508.55-11.83 510.9-13.85 515.35-14.3L515.35-14.3 523.05-15.15 523.05-17.15Q523.05-19.25 521.5-20.53 519.95-21.8 517.3-21.8L517.3-21.8Q514.7-21.8 512.97-20.6 511.25-19.4 510.6-17.15L510.6-17.15 507.2-18.35Q508.2-21.65 510.87-23.5 513.55-25.35 517.4-25.35L517.4-25.35Q521.85-25.35 524.32-23.08 526.8-20.8 526.8-16.9L526.8-16.9 526.8 0ZM523.05-11.15L523.05-11.95 515.3-11.05Q512.8-10.75 511.5-9.68 510.2-8.6 510.2-6.85L510.2-6.85Q510.2-5.1 511.47-4.05 512.75-3 515.15-3L515.15-3Q517.9-3 519.65-4.1 521.4-5.2 522.22-7.08 523.05-8.95 523.05-11.15L523.05-11.15ZM532.55-6.45L536.15-7.65Q536.45-6.15 537.25-5.18 538.05-4.2 539.32-3.7 540.6-3.2 542.3-3.2L542.3-3.2Q544.95-3.2 546.32-4.23 547.7-5.25 547.7-6.8L547.7-6.8Q547.7-8.1 546.87-8.9 546.05-9.7 544.7-10.23 543.35-10.75 541.7-11.15L541.7-11.15Q540.4-11.45 538.9-11.88 537.4-12.3 536.05-13.05 534.7-13.8 533.85-15 533-16.2 533-18.15L533-18.15Q533-20.3 534.17-21.93 535.35-23.55 537.42-24.45 539.5-25.35 542.2-25.35L542.2-25.35Q545.3-25.35 547.72-24 550.15-22.65 551.1-19.8L551.1-19.8 547.6-18.6Q547.25-19.9 546.32-20.6 545.4-21.3 544.27-21.55 543.15-21.8 542.05-21.8L542.05-21.8Q539.8-21.8 538.42-20.93 537.05-20.05 537.05-18.3L537.05-18.3Q537.05-17.35 537.5-16.73 537.95-16.1 538.75-15.7 539.55-15.3 540.65-15.03 541.75-14.75 543.05-14.4L543.05-14.4Q544.5-14.05 546-13.53 547.5-13 548.8-12.18 550.1-11.35 550.92-10.08 551.75-8.8 551.75-6.9L551.75-6.9Q551.75-4.7 550.55-3.08 549.35-1.45 547.22-0.55 545.1 0.35 542.3 0.35L542.3 0.35Q538.45 0.35 535.92-1.38 533.4-3.1 532.55-6.45L532.55-6.45ZM568.34 0.35L568.34 0.35Q564.84 0.35 562.12-1.35 559.39-3.05 557.84-6 556.29-8.95 556.29-12.75L556.29-12.75Q556.29-16.4 557.84-19.25 559.39-22.1 562.09-23.73 564.79-25.35 568.24-25.35L568.24-25.35Q571.64-25.35 574.32-23.85 576.99-22.35 578.49-19.7 579.99-17.05 579.89-13.65L579.89-13.65Q579.89-13.1 579.84-12.5 579.79-11.9 579.74-11.2L579.74-11.2 560.39-11.2Q560.49-8.85 561.54-7.05 562.59-5.25 564.32-4.23 566.04-3.2 568.24-3.2L568.24-3.2Q571.14-3.2 573.17-4.3 575.19-5.4 576.09-7.45L576.09-7.45 579.34-6.15Q577.84-3 574.99-1.33 572.14 0.35 568.34 0.35ZM560.44-14.45L575.79-14.45Q575.84-16.6 574.87-18.25 573.89-19.9 572.14-20.85 570.39-21.8 568.09-21.8L568.09-21.8Q566.09-21.8 564.44-20.85 562.79-19.9 561.72-18.23 560.64-16.55 560.44-14.45L560.44-14.45ZM584.49-6.45L588.09-7.65Q588.39-6.15 589.19-5.18 589.99-4.2 591.27-3.7 592.54-3.2 594.24-3.2L594.24-3.2Q596.89-3.2 598.27-4.23 599.64-5.25 599.64-6.8L599.64-6.8Q599.64-8.1 598.82-8.9 597.99-9.7 596.64-10.23 595.29-10.75 593.64-11.15L593.64-11.15Q592.34-11.45 590.84-11.88 589.34-12.3 587.99-13.05 586.64-13.8 585.79-15 584.94-16.2 584.94-18.15L584.94-18.15Q584.94-20.3 586.12-21.93 587.29-23.55 589.37-24.45 591.44-25.35 594.14-25.35L594.14-25.35Q597.24-25.35 599.67-24 602.09-22.65 603.04-19.8L603.04-19.8 599.54-18.6Q599.19-19.9 598.27-20.6 597.34-21.3 596.22-21.55 595.09-21.8 593.99-21.8L593.99-21.8Q591.74-21.8 590.37-20.93 588.99-20.05 588.99-18.3L588.99-18.3Q588.99-17.35 589.44-16.73 589.89-16.1 590.69-15.7 591.49-15.3 592.59-15.03 593.69-14.75 594.99-14.4L594.99-14.4Q596.44-14.05 597.94-13.53 599.44-13 600.74-12.18 602.04-11.35 602.87-10.08 603.69-8.8 603.69-6.9L603.69-6.9Q603.69-4.7 602.49-3.08 601.29-1.45 599.17-0.55 597.04 0.35 594.24 0.35L594.24 0.35Q590.39 0.35 587.87-1.38 585.34-3.1 584.49-6.45L584.49-6.45ZM628.18-27.1L628.18 0 624.18 0 624.18-35 628.58-35 641.58-5.5 654.53-35 658.88-35 658.88 0 654.88 0 654.88-27.1 642.98 0 640.13 0 628.18-27.1ZM686.08 0L682.63 0 682.33-4.5Q681.28-2.2 679.23-0.93 677.18 0.35 674.03 0.35L674.03 0.35Q671.33 0.35 669.43-0.5 667.53-1.35 666.51-2.93 665.48-4.5 665.48-6.65L665.48-6.65Q665.48-9.8 667.83-11.83 670.18-13.85 674.63-14.3L674.63-14.3 682.33-15.15 682.33-17.15Q682.33-19.25 680.78-20.53 679.23-21.8 676.58-21.8L676.58-21.8Q673.98-21.8 672.26-20.6 670.53-19.4 669.88-17.15L669.88-17.15 666.48-18.35Q667.48-21.65 670.16-23.5 672.83-25.35 676.68-25.35L676.68-25.35Q681.13-25.35 683.61-23.08 686.08-20.8 686.08-16.9L686.08-16.9 686.08 0ZM682.33-11.15L682.33-11.95 674.58-11.05Q672.08-10.75 670.78-9.68 669.48-8.6 669.48-6.85L669.48-6.85Q669.48-5.1 670.76-4.05 672.03-3 674.43-3L674.43-3Q677.18-3 678.93-4.1 680.68-5.2 681.51-7.08 682.33-8.95 682.33-11.15L682.33-11.15ZM712.68-19.95L712.68-19.95 712.28-19.9 712.28-36 716.03-36 716.03 0 712.58 0 712.33-4.65Q711.18-2.55 708.9-1.1 706.63 0.35 703.28 0.35L703.28 0.35Q699.83 0.35 697.25-1.23 694.68-2.8 693.25-5.7 691.83-8.6 691.83-12.5L691.83-12.5Q691.83-16.4 693.25-19.28 694.68-22.15 697.25-23.75 699.83-25.35 703.28-25.35L703.28-25.35Q706.83-25.35 709.18-23.8 711.53-22.25 712.68-19.95ZM695.88-12.5L695.88-12.5Q695.88-8.2 698.08-5.68 700.28-3.15 704.08-3.15L704.08-3.15Q706.43-3.15 708.28-4.25 710.13-5.35 711.2-7.45 712.28-9.55 712.28-12.5L712.28-12.5Q712.28-15.45 711.2-17.53 710.13-19.6 708.28-20.73 706.43-21.85 704.08-21.85L704.08-21.85Q700.33-21.85 698.1-19.33 695.88-16.8 695.88-12.5ZM734.18 0.35L734.18 0.35Q730.68 0.35 727.95-1.35 725.23-3.05 723.68-6 722.13-8.95 722.13-12.75L722.13-12.75Q722.13-16.4 723.68-19.25 725.23-22.1 727.93-23.73 730.63-25.35 734.08-25.35L734.08-25.35Q737.48-25.35 740.15-23.85 742.83-22.35 744.33-19.7 745.83-17.05 745.73-13.65L745.73-13.65Q745.73-13.1 745.68-12.5 745.63-11.9 745.58-11.2L745.58-11.2 726.23-11.2Q726.33-8.85 727.38-7.05 728.43-5.25 730.15-4.23 731.88-3.2 734.08-3.2L734.08-3.2Q736.98-3.2 739-4.3 741.03-5.4 741.93-7.45L741.93-7.45 745.18-6.15Q743.68-3 740.83-1.33 737.98 0.35 734.18 0.35ZM726.28-14.45L741.63-14.45Q741.68-16.6 740.7-18.25 739.73-19.9 737.98-20.85 736.23-21.8 733.93-21.8L733.93-21.8Q731.93-21.8 730.28-20.85 728.63-19.9 727.55-18.23 726.48-16.55 726.28-14.45L726.28-14.45ZM789.22-35L789.22-31.5 770.27-31.5 770.27-19.55 784.52-19.55 784.52-16.05 770.27-16.05 770.27-3.5 789.22-3.5 789.22 0 766.27 0 766.27-35 789.22-35ZM815.42 0L811.97 0 811.67-4.5Q810.62-2.2 808.57-0.93 806.52 0.35 803.37 0.35L803.37 0.35Q800.67 0.35 798.77-0.5 796.87-1.35 795.84-2.93 794.82-4.5 794.82-6.65L794.82-6.65Q794.82-9.8 797.17-11.83 799.52-13.85 803.97-14.3L803.97-14.3 811.67-15.15 811.67-17.15Q811.67-19.25 810.12-20.53 808.57-21.8 805.92-21.8L805.92-21.8Q803.32-21.8 801.59-20.6 799.87-19.4 799.22-17.15L799.22-17.15 795.82-18.35Q796.82-21.65 799.49-23.5 802.17-25.35 806.02-25.35L806.02-25.35Q810.47-25.35 812.94-23.08 815.42-20.8 815.42-16.9L815.42-16.9 815.42 0ZM811.67-11.15L811.67-11.95 803.92-11.05Q801.42-10.75 800.12-9.68 798.82-8.6 798.82-6.85L798.82-6.85Q798.82-5.1 800.09-4.05 801.37-3 803.77-3L803.77-3Q806.52-3 808.27-4.1 810.02-5.2 810.84-7.08 811.67-8.95 811.67-11.15L811.67-11.15ZM821.17-6.45L824.77-7.65Q825.07-6.15 825.87-5.18 826.67-4.2 827.94-3.7 829.22-3.2 830.92-3.2L830.92-3.2Q833.57-3.2 834.94-4.23 836.32-5.25 836.32-6.8L836.32-6.8Q836.32-8.1 835.49-8.9 834.67-9.7 833.32-10.23 831.97-10.75 830.32-11.15L830.32-11.15Q829.02-11.45 827.52-11.88 826.02-12.3 824.67-13.05 823.32-13.8 822.47-15 821.62-16.2 821.62-18.15L821.62-18.15Q821.62-20.3 822.79-21.93 823.97-23.55 826.04-24.45 828.12-25.35 830.82-25.35L830.82-25.35Q833.92-25.35 836.34-24 838.77-22.65 839.72-19.8L839.72-19.8 836.22-18.6Q835.87-19.9 834.94-20.6 834.02-21.3 832.89-21.55 831.77-21.8 830.67-21.8L830.67-21.8Q828.42-21.8 827.04-20.93 825.67-20.05 825.67-18.3L825.67-18.3Q825.67-17.35 826.12-16.73 826.57-16.1 827.37-15.7 828.17-15.3 829.27-15.03 830.37-14.75 831.67-14.4L831.67-14.4Q833.12-14.05 834.62-13.53 836.12-13 837.42-12.18 838.72-11.35 839.54-10.08 840.37-8.8 840.37-6.9L840.37-6.9Q840.37-4.7 839.17-3.08 837.97-1.45 835.84-0.55 833.72 0.35 830.92 0.35L830.92 0.35Q827.07 0.35 824.54-1.38 822.02-3.1 821.17-6.45L821.17-6.45ZM855.66-4.8L863.41-25 867.31-25 853.01 10 849.41 10 853.66-0.35 843.56-25 847.66-25 855.66-4.8Z" opacity="1" transform="matrix(1,0,0,1,0,0)" fill="#0ab228" class="slogan-text-1" data-fill-palette-color="secondary" id="text-1"></path></svg></g></svg></g></svg></g></svg></g><g><svg viewBox="0 0 93.72796383359255 93.72796383359255" height="93.72796383359255" width="93.72796383359255"><g><svg></svg></g><g id="icon-0"><svg viewBox="0 0 93.72796383359255 93.72796383359255" height="93.72796383359255" width="93.72796383359255"><g><path d="M0 46.864c0-25.882 20.982-46.864 46.864-46.864 25.882 0 46.864 20.982 46.864 46.864 0 25.882-20.982 46.864-46.864 46.864-25.882 0-46.864-20.982-46.864-46.864zM46.864 91.752c24.791 0 44.888-20.097 44.888-44.888 0-24.791-20.097-44.888-44.888-44.888-24.791 0-44.888 20.097-44.888 44.888 0 24.791 20.097 44.888 44.888 44.888z" data-fill-palette-color="accent" fill="#283132" stroke="transparent"></path></g><g transform="matrix(1,0,0,1,18.776153583570814,24.535463218735643)"><svg viewBox="0 0 56.17565666645093 44.65703739612127" height="44.65703739612127" width="56.17565666645093"><g><svg xmlns="http://www.w3.org/2000/svg" xmlns:xlink="http://www.w3.org/1999/xlink" version="1.1" x="0" y="0" viewBox="2.036184014545433 11.999999999999993 93.3387875168964 74.20000000000002" enable-background="new 0 0 100 100" xml:space="preserve" height="44.65703739612127" width="56.17565666645093" class="icon-cg-0" data-fill-palette-color="accent" id="cg-0"><g fill="#283132" data-fill-palette-color="accent"><g fill="#283132" data-fill-palette-color="accent"><path d="M86.6 86.2c-2.9 0-4.4-0.3-5.5-2.8-0.9-2-5.4-6.3-6.4-6.5 0 0 0 0 0 0-1.2 0-1.8-1.6-2.6-3.7-0.4-1.1-1.1-3.1-1.6-3.4-0.2 0-0.3-0.1-0.5-0.1-1.3-0.3-2.7-0.7-2.2-3.2 0.1-0.4-0.9-1.7-3-3.2-0.2-0.1-0.3-0.2-0.4-0.3-1.2-1.2-6.9-7.3-5.5-13.1l0.1-0.4c1.1-4.6 3.1-12.2 0.7-13.1-3.5-1.2-4.2-1.6-7.2-5.1l-0.5-0.6c-2.5-3-4.4-5.2-7.1-4.9-3.2 0.4-6 2.4-6.1 2.4-0.5 0.3-4.9 3.2-7.7 3.2-1.7 0-2.3-1-2.6-1.6-0.6-1.6-2.3-5.5-5.6-6.3-1.7-0.4-8.1-0.8-17.2-1.1-1.4 0-2.6-1.1-2.7-2.5-0.1-1.1-0.3-2.8-0.8-4.2-0.3-0.9-0.2-1.8 0.4-2.5 0.5-0.7 1.4-1.2 2.3-1.2h27.8c1.2 0 2.2 0.7 2.6 1.8l0.6 1.5c0.1 0.3 0.4 0.5 0.7 0.5h28.6c1.5 0 2.7 1.2 2.8 2.7 0.1 1.5 0.4 1.8 0.4 1.8l0.1 0c0.5 0 0.8-0.1 1-0.3 0.2-0.2 0.3-0.7 0.2-1.3-0.1-1.6-0.2-3 0.6-3.8 0.5-0.6 1.3-0.7 2.2-0.4 0.7 0.2 1.2 0.6 1.6 0.8 0.6 0.4 0.7 0.4 1.2 0.2 0.2-0.1 0.4-0.1 0.6-0.1 0.9 0 2.4 0 7.4 18.8 0 0.1 0.1 0.2 0.1 0.3 6.4 8 5.9 9.7 5.8 10.2-0.4 1.3-0.3 6.3 3.2 11.1 3.8 5.2 3.1 14.9 2.5 17.9-0.6 2.6-1.7 4.7-2.2 5.5 0 0.1-0.1 0.1-0.1 0.2l-0.7 2.5c0 0.2 0 0.3 0.1 0.5 0.4 0.9 0.4 1.8 0 2.4-0.6 0.9-1.7 1.3-3.5 1.4C87.8 86.2 87.1 86.2 86.6 86.2zM75 75c2.1 0.5 6.9 5.5 7.9 7.7 0.6 1.3 0.8 1.6 3.6 1.6 0.5 0 1.2 0 1.8 0 1.6 0 1.8-0.4 1.8-0.4 0 0 0-0.2-0.1-0.5-0.3-0.6-0.4-1.3-0.2-1.9l0.7-2.5c0.1-0.2 0.2-0.5 0.3-0.7 0.3-0.5 1.4-2.5 2-4.9 0.7-3 1.1-11.9-2.1-16.2-3.6-4.8-4.2-10.5-3.5-12.8 0.1-0.7-1.8-3.9-5.4-8.4-0.2-0.3-0.4-0.6-0.5-1-2.3-8.6-4.6-15.6-5.6-17.1-0.3 0.1-0.6 0.2-0.9 0.2-0.8 0-1.3-0.4-1.8-0.7-0.3-0.2-0.7-0.4-1.1-0.6-0.1 0-0.1 0-0.2 0-0.1 0.3-0.1 1 0 2.2 0.1 1.3-0.2 2.2-0.8 2.9-0.6 0.6-1.5 0.9-2.7 0.9-1 0-2.1-0.7-2.2-3.7 0-0.4-0.4-0.8-0.8-0.8H36.6c-1.2 0-2.2-0.7-2.6-1.8l-0.6-1.5c-0.1-0.3-0.4-0.5-0.7-0.5H4.9c-0.3 0-0.5 0.1-0.7 0.3C4.1 14.7 4 15 4.1 15.2c0.5 1.6 0.8 3.4 0.9 4.6 0 0.4 0.4 0.7 0.8 0.7 5.5 0.2 15.1 0.5 17.6 1.1 3 0.7 5.5 3.5 7 7.6 0 0.1 0.1 0.3 0.7 0.3 1.9 0 5.4-2.1 6.6-2.9 0.1-0.1 3.3-2.3 6.9-2.8 3.8-0.5 6.1 2.3 8.9 5.6l0.5 0.6c2.7 3.3 3.2 3.4 6.4 4.5 4.1 1.4 2.2 8.9 0.6 15.4l-0.1 0.4c-1.2 4.9 4.3 10.6 5 11.2 0 0 0.1 0.1 0.1 0.1 1.6 1.1 4.3 3.2 3.9 5.2-0.1 0.3-0.1 0.5-0.1 0.6 0.2 0.1 0.5 0.2 0.8 0.2 0.2 0 0.4 0.1 0.6 0.1 1.4 0.4 2.1 2.3 2.9 4.6C74.3 73.3 74.8 74.6 75 75z" fill="#283132" data-fill-palette-color="accent"></path></g></g></svg></g></svg></g></svg></g></svg></g></svg></g><defs></defs></svg><rect width="395.52" height="74.20273986787292" fill="none" stroke="none" visibility="hidden"></rect></g></svg></g></svg>